{
	"asset":{
		"generator":"Khronos glTF Blender I/O v3.6.27",
		"version":"2.0"
	},
	"extensionsUsed":[
		"KHR_materials_specular",
		"KHR_materials_ior"
	],
	"scene":0,
	"scenes":[
		{
			"name":"Scene",
			"nodes":[
				0,
				1,
				2
			]
		}
	],
	"nodes":[
		{
			"mesh":0,
			"name":"building0",
			"scale":[
				2,
				1,
				1
			],
			"translation":[
				0,
				1,
				-1
			]
		},
		{
			"mesh":1,
			"name":"building1",
			"scale":[
				2,
				0.6243948340415955,
				1
			],
			"translation":[
				0,
				4,
				-2
			]
		},
		{
			"mesh":2,
			"name":"floor",
			"scale":[
				-9.954022407531738,
				-9.954022407531738,
				-9.954022407531738
			],
			"translation":[
				0,
				0,
				-2
			]
		}
	],
	"materials":[
		{
			"doubleSided":true,
			"extensions":{
				"KHR_materials_specular":{
					"specularColorFactor":[
						0,
						0,
						0
					]
				},
				"KHR_materials_ior":{
					"ior":1.4500000476837158
				}
			},
			"name":"Material",
			"pbrMetallicRoughness":{
				"baseColorFactor":[
					0.8796218037605286,
					0.7991023659706116,
					0.46778392791748047,
					1
				],
				"metallicFactor":0,
				"roughnessFactor":0.5
			}
		},
		{
			"doubleSided":true,
			"extensions":{
				"KHR_materials_specular":{
					"specularColorFactor":[
						0.3420227654699543,
						0.3420227654699543,
						0.3420227654699543
					]
				},
				"KHR_materials_ior":{
					"ior":1.4500000476837158
				}
			},
			"name":"Material.001",
			"pbrMetallicRoughness":{
				"baseColorFactor":[
					0,
					0.5088810324668884,
					0.4019777774810791,
					1
				],
				"metallicFactor":0,
				"roughnessFactor":0.44711539149284363
			}
		},
		{
			"doubleSided":true,
			"name":"Material.002",
			"pbrMetallicRoughness":{
				"baseColorFactor":[
					0.18429288268089294,
					0.3593306243419647,
					0.8000000715255737,
					1
				],
				"metallicFactor":0,
				"roughnessFactor":0.5
			}
		},
		{
			"doubleSided":true,
			"name":"Material.005",
			"pbrMetallicRoughness":{
				"baseColorFactor":[
					0.011612245813012123,
					0.25015830993652344,
					0.20863686501979828,
					1
				],
				"metallicFactor":0,
				"roughnessFactor":0.5
			}
		},
		{
			"doubleSided":true,
			"name":"Material.007",
			"pbrMetallicRoughness":{
				"baseColorFactor":[
					0.12477181106805801,
					0.11443537473678589,
					0.06847818195819855,
					1
				],
				"metallicFactor":0,
				"roughnessFactor":0.5
			}
		},
		{
			"doubleSided":true,
			"name":"Material.008",
			"pbrMetallicRoughness":{
				"baseColorFactor":[
					0.9816115498542786,
					1,
					0.9067515730857849,
					1
				],
				"metallicFactor":0,
				"roughnessFactor":0.5
			}
		}
	],
	"meshes":[
		{
			"name":"Cube",
			"primitives":[
				{
					"attributes":{
						"POSITION":0,
						"NORMAL":1,
						"TEXCOORD_0":2
					},
					"indices":3,
					"material":0
				},
				{
					"attributes":{
						"POSITION":4,
						"NORMAL":5,
						"TEXCOORD_0":6
					},
					"indices":7,
					"material":1
				},
				{
					"attributes":{
						"POSITION":8,
						"NORMAL":9,
						"TEXCOORD_0":10
					},
					"indices":11,
					"material":2
				},
				{
					"attributes":{
						"POSITION":12,
						"NORMAL":13,
						"TEXCOORD_0":14
					},
					"indices":15,
					"material":0
				},
				{
					"attributes":{
						"POSITION":16,
						"NORMAL":17,
						"TEXCOORD_0":18
					},
					"indices":19,
					"material":3
				},
				{
					"attributes":{
						"POSITION":20,
						"NORMAL":21,
						"TEXCOORD_0":22
					},
					"indices":23,
					"material":4
				}
			]
		},
		{
			"name":"Cube.001",
			"primitives":[
				{
					"attributes":{
						"POSITION":24,
						"NORMAL":25,
						"TEXCOORD_0":26
					},
					"indices":27,
					"material":0
				},
				{
					"attributes":{
						"POSITION":28,
						"NORMAL":29,
						"TEXCOORD_0":30
					},
					"indices":31,
					"material":1
				},
				{
					"attributes":{
						"POSITION":32,
						"NORMAL":33,
						"TEXCOORD_0":34
					},
					"indices":35,
					"material":2
				}
			]
		},
		{
			"name":"Plane",
			"primitives":[
				{
					"attributes":{
						"POSITION":36,
						"NORMAL":37,
						"TEXCOORD_0":38
					},
					"indices":39,
					"material":5
				}
			]
		}
	],
	"accessors":[
		{
			"bufferView":0,
			"componentType":5126,
			"count":40,
			"max":[
				1.0387667417526245,
				3.0038766860961914,
				1.0775333642959595
			],
			"min":[
				-1.0387667417526245,
				2.7961232662200928,
				-3.077533721923828
			],
			"type":"VEC3"
		},
		{
			"bufferView":1,
			"componentType":5126,
			"count":40,
			"type":"VEC3"
		},
		{
			"bufferView":2,
			"componentType":5126,
			"count":40,
			"type":"VEC2"
		},
		{
			"bufferView":3,
			"componentType":5123,
			"count":102,
			"type":"SCALAR"
		},
		{
			"bufferView":4,
			"componentType":5126,
			"count":313,
			"max":[
				1.0387667417526245,
				3,
				1.0775333642959595
			],
			"min":[
				-1.0387667417526245,
				-1,
				-3.077533721923828
			],
			"type":"VEC3"
		},
		{
			"bufferView":5,
			"componentType":5126,
			"count":313,
			"type":"VEC3"
		},
		{
			"bufferView":6,
			"componentType":5126,
			"count":313,
			"type":"VEC2"
		},
		{
			"bufferView":7,
			"componentType":5123,
			"count":864,
			"type":"SCALAR"
		},
		{
			"bufferView":8,
			"componentType":5126,
			"count":52,
			"max":[
				0.8058745861053467,
				1.585859775543213,
				0.8584241271018982
			],
			"min":[
				-0.9254114627838135,
				-0.9059259295463562,
				0.763323962688446
			],
			"type":"VEC3"
		},
		{
			"bufferView":9,
			"componentType":5126,
			"count":52,
			"type":"VEC3"
		},
		{
			"bufferView":10,
			"componentType":5126,
			"count":52,
			"type":"VEC2"
		},
		{
			"bufferView":11,
			"componentType":5123,
			"count":117,
			"type":"SCALAR"
		},
		{
			"bufferView":12,
			"componentType":5126,
			"count":109,
			"max":[
				0.8371769785881042,
				1.585859775543213,
				1
			],
			"min":[
				-0.9254114627838135,
				-0.9059259295463562,
				0.763323962688446
			],
			"type":"VEC3"
		},
		{
			"bufferView":13,
			"componentType":5126,
			"count":109,
			"type":"VEC3"
		},
		{
			"bufferView":14,
			"componentType":5126,
			"count":109,
			"type":"VEC2"
		},
		{
			"bufferView":15,
			"componentType":5123,
			"count":255,
			"type":"SCALAR"
		},
		{
			"bufferView":16,
			"componentType":5126,
			"count":150,
			"max":[
				1.0387667417526245,
				3.0038766860961914,
				1.0775333642959595
			],
			"min":[
				-1.0387667417526245,
				2.0558743476867676,
				-3.077533721923828
			],
			"type":"VEC3"
		},
		{
			"bufferView":17,
			"componentType":5126,
			"count":150,
			"type":"VEC3"
		},
		{
			"bufferView":18,
			"componentType":5126,
			"count":150,
			"type":"VEC2"
		},
		{
			"bufferView":19,
			"componentType":5123,
			"count":354,
			"type":"SCALAR"
		},
		{
			"bufferView":20,
			"componentType":5126,
			"count":52,
			"max":[
				1,
				-0.8684857487678528,
				1
			],
			"min":[
				-1,
				-1,
				-3
			],
			"type":"VEC3"
		},
		{
			"bufferView":21,
			"componentType":5126,
			"count":52,
			"type":"VEC3"
		},
		{
			"bufferView":22,
			"componentType":5126,
			"count":52,
			"type":"VEC2"
		},
		{
			"bufferView":23,
			"componentType":5123,
			"count":120,
			"type":"SCALAR"
		},
		{
			"bufferView":24,
			"componentType":5126,
			"count":405,
			"max":[
				1.0387667417526245,
				4.003876686096191,
				2.2574617862701416
			],
			"min":[
				-1.0387667417526245,
				0.7265914678573608,
				-2.077533721923828
			],
			"type":"VEC3"
		},
		{
			"bufferView":25,
			"componentType":5126,
			"count":405,
			"type":"VEC3"
		},
		{
			"bufferView":26,
			"componentType":5126,
			"count":405,
			"type":"VEC2"
		},
		{
			"bufferView":27,
			"componentType":5123,
			"count":852,
			"type":"SCALAR"
		},
		{
			"bufferView":28,
			"componentType":5126,
			"count":326,
			"max":[
				1.0387667417526245,
				4.003876686096191,
				2.07753324508667
			],
			"min":[
				-1.0387667417526245,
				0,
				-2.077533721923828
			],
			"type":"VEC3"
		},
		{
			"bufferView":29,
			"componentType":5126,
			"count":326,
			"type":"VEC3"
		},
		{
			"bufferView":30,
			"componentType":5126,
			"count":326,
			"type":"VEC2"
		},
		{
			"bufferView":31,
			"componentType":5123,
			"count":984,
			"type":"SCALAR"
		},
		{
			"bufferView":32,
			"componentType":5126,
			"count":94,
			"max":[
				0.8087916970252991,
				3.073408365249634,
				1.9654210805892944
			],
			"min":[
				-0.8087916970252991,
				0.7265914678573608,
				1.9374512434005737
			],
			"type":"VEC3"
		},
		{
			"bufferView":33,
			"componentType":5126,
			"count":94,
			"type":"VEC3"
		},
		{
			"bufferView":34,
			"componentType":5126,
			"count":94,
			"type":"VEC2"
		},
		{
			"bufferView":35,
			"componentType":5123,
			"count":240,
			"type":"SCALAR"
		},
		{
			"bufferView":36,
			"componentType":5126,
			"count":4,
			"max":[
				2.1726558208465576,
				0,
				0.9999998807907104
			],
			"min":[
				-2.1726558208465576,
				0,
				-1
			],
			"type":"VEC3"
		},
		{
			"bufferView":37,
			"componentType":5126,
			"count":4,
			"type":"VEC3"
		},
		{
			"bufferView":38,
			"componentType":5126,
			"count":4,
			"type":"VEC2"
		},
		{
			"bufferView":39,
			"componentType":5123,
			"count":6,
			"type":"SCALAR"
		}
	],
	"bufferViews":[
		{
			"buffer":0,
			"byteLength":480,
			"byteOffset":0,
			"target":34962
		},
		{
			"buffer":0,
			"byteLength":480,
			"byteOffset":480,
			"target":34962
		},
		{
			"buffer":0,
			"byteLength":320,
			"byteOffset":960,
			"target":34962
		},
		{
			"buffer":0,
			"byteLength":204,
			"byteOffset":1280,
			"target":34963
		},
		{
			"buffer":0,
			"byteLength":3756,
			"byteOffset":1484,
			"target":34962
		},
		{
			"buffer":0,
			"byteLength":3756,
			"byteOffset":5240,
			"target":34962
		},
		{
			"buffer":0,
			"byteLength":2504,
			"byteOffset":8996,
			"target":34962
		},
		{
			"buffer":0,
			"byteLength":1728,
			"byteOffset":11500,
			"target":34963
		},
		{
			"buffer":0,
			"byteLength":624,
			"byteOffset":13228,
			"target":34962
		},
		{
			"buffer":0,
			"byteLength":624,
			"byteOffset":13852,
			"target":34962
		},
		{
			"buffer":0,
			"byteLength":416,
			"byteOffset":14476,
			"target":34962
		},
		{
			"buffer":0,
			"byteLength":234,
			"byteOffset":14892,
			"target":34963
		},
		{
			"buffer":0,
			"byteLength":1308,
			"byteOffset":15128,
			"target":34962
		},
		{
			"buffer":0,
			"byteLength":1308,
			"byteOffset":16436,
			"target":34962
		},
		{
			"buffer":0,
			"byteLength":872,
			"byteOffset":17744,
			"target":34962
		},
		{
			"buffer":0,
			"byteLength":510,
			"byteOffset":18616,
			"target":34963
		},
		{
			"buffer":0,
			"byteLength":1800,
			"byteOffset":19128,
			"target":34962
		},
		{
			"buffer":0,
			"byteLength":1800,
			"byteOffset":20928,
			"target":34962
		},
		{
			"buffer":0,
			"byteLength":1200,
			"byteOffset":22728,
			"target":34962
		},
		{
			"buffer":0,
			"byteLength":708,
			"byteOffset":23928,
			"target":34963
		},
		{
			"buffer":0,
			"byteLength":624,
			"byteOffset":24636,
			"target":34962
		},
		{
			"buffer":0,
			"byteLength":624,
			"byteOffset":25260,
			"target":34962
		},
		{
			"buffer":0,
			"byteLength":416,
			"byteOffset":25884,
			"target":34962
		},
		{
			"buffer":0,
			"byteLength":240,
			"byteOffset":26300,
			"target":34963
		},
		{
			"buffer":0,
			"byteLength":4860,
			"byteOffset":26540,
			"target":34962
		},
		{
			"buffer":0,
			"byteLength":4860,
			"byteOffset":31400,
			"target":34962
		},
		{
			"buffer":0,
			"byteLength":3240,
			"byteOffset":36260,
			"target":34962
		},
		{
			"buffer":0,
			"byteLength":1704,
			"byteOffset":39500,
			"target":34963
		},
		{
			"buffer":0,
			"byteLength":3912,
			"byteOffset":41204,
			"target":34962
		},
		{
			"buffer":0,
			"byteLength":3912,
			"byteOffset":45116,
			"target":34962
		},
		{
			"buffer":0,
			"byteLength":2608,
			"byteOffset":49028,
			"target":34962
		},
		{
			"buffer":0,
			"byteLength":1968,
			"byteOffset":51636,
			"target":34963
		},
		{
			"buffer":0,
			"byteLength":1128,
			"byteOffset":53604,
			"target":34962
		},
		{
			"buffer":0,
			"byteLength":1128,
			"byteOffset":54732,
			"target":34962
		},
		{
			"buffer":0,
			"byteLength":752,
			"byteOffset":55860,
			"target":34962
		},
		{
			"buffer":0,
			"byteLength":480,
			"byteOffset":56612,
			"target":34963
		},
		{
			"buffer":0,
			"byteLength":48,
			"byteOffset":57092,
			"target":34962
		},
		{
			"buffer":0,
			"byteLength":48,
			"byteOffset":57140,
			"target":34962
		},
		{
			"buffer":0,
			"byteLength":32,
			"byteOffset":57188,
			"target":34962
		},
		{
			"buffer":0,
			"byteLength":12,
			"byteOffset":57220,
			"target":34963
		}
	],
	"buffers":[
		{
			"byteLength":57232,
			"uri":"buildingScene.bin"
		}
	]
}
