{
	"asset":{
		"generator":"Khronos glTF Blender I/O v3.6.27",
		"version":"2.0"
	},
	"extensionsUsed":[
		"KHR_materials_specular",
		"KHR_materials_ior"
	],
	"scene":0,
	"scenes":[
		{
			"name":"Scene",
			"nodes":[
				0,
				1,
				2,
				3
			]
		}
	],
	"nodes":[
		{
			"mesh":0,
			"name":"building0",
			"scale":[
				2,
				1,
				1
			],
			"translation":[
				0,
				1,
				-1
			]
		},
		{
			"mesh":1,
			"name":"building1",
			"scale":[
				2,
				0.6243948340415955,
				1
			],
			"translation":[
				0,
				4.200000286102295,
				-2
			]
		},
		{
			"mesh":2,
			"name":"floor",
			"scale":[
				-9.954022407531738,
				-9.954022407531738,
				-9.954022407531738
			],
			"translation":[
				0,
				0,
				-2
			]
		},
		{
			"mesh":3,
			"name":"vaso",
			"scale":[
				-0.09987414628267288,
				-0.09987414628267288,
				-0.09987414628267288
			],
			"translation":[
				-1.3087916374206543,
				5,
				0.2150079607963562
			]
		}
	],
	"materials":[
		{
			"doubleSided":true,
			"extensions":{
				"KHR_materials_specular":{
					"specularColorFactor":[
						0,
						0,
						0
					]
				},
				"KHR_materials_ior":{
					"ior":1.4500000476837158
				}
			},
			"name":"Material",
			"pbrMetallicRoughness":{
				"baseColorFactor":[
					0.8796218037605286,
					0.7991023659706116,
					0.46778392791748047,
					1
				],
				"metallicFactor":0,
				"roughnessFactor":0.5
			}
		},
		{
			"doubleSided":true,
			"extensions":{
				"KHR_materials_specular":{
					"specularColorFactor":[
						0.3420227654699543,
						0.3420227654699543,
						0.3420227654699543
					]
				},
				"KHR_materials_ior":{
					"ior":1.4500000476837158
				}
			},
			"name":"Material.001",
			"pbrMetallicRoughness":{
				"baseColorFactor":[
					0,
					0.5088810324668884,
					0.4019777774810791,
					1
				],
				"metallicFactor":0,
				"roughnessFactor":0.44711539149284363
			}
		},
		{
			"doubleSided":true,
			"name":"Material.002",
			"pbrMetallicRoughness":{
				"baseColorFactor":[
					0.18429288268089294,
					0.3593306243419647,
					0.8000000715255737,
					1
				],
				"metallicFactor":0,
				"roughnessFactor":0.5
			}
		},
		{
			"doubleSided":true,
			"name":"Material.005",
			"pbrMetallicRoughness":{
				"baseColorFactor":[
					0.011612245813012123,
					0.25015830993652344,
					0.20863686501979828,
					1
				],
				"metallicFactor":0,
				"roughnessFactor":0.5
			}
		},
		{
			"doubleSided":true,
			"name":"Material.007",
			"pbrMetallicRoughness":{
				"baseColorFactor":[
					0.12477181106805801,
					0.11443537473678589,
					0.06847818195819855,
					1
				],
				"metallicFactor":0,
				"roughnessFactor":0.5
			}
		},
		{
			"doubleSided":true,
			"name":"Material.008",
			"pbrMetallicRoughness":{
				"baseColorFactor":[
					0.9816115498542786,
					1,
					0.9067515730857849,
					1
				],
				"metallicFactor":0,
				"roughnessFactor":0.5
			}
		},
		{
			"doubleSided":true,
			"name":"Material.009",
			"pbrMetallicRoughness":{
				"baseColorFactor":[
					1,
					0.2235713005065918,
					0.027857258915901184,
					1
				],
				"metallicFactor":0,
				"roughnessFactor":0.5
			}
		},
		{
			"doubleSided":true,
			"name":"Material.010",
			"pbrMetallicRoughness":{
				"baseColorFactor":[
					0.08353116363286972,
					0.019543582573533058,
					0.0049672373570501804,
					1
				],
				"metallicFactor":0,
				"roughnessFactor":0.5
			}
		},
		{
			"doubleSided":true,
			"name":"Material.green",
			"pbrMetallicRoughness":{
				"baseColorFactor":[
					0.16302214562892914,
					0.8000000715255737,
					0.07428835332393646,
					1
				],
				"metallicFactor":0,
				"roughnessFactor":0.5
			}
		},
		{
			"doubleSided":true,
			"name":"Material.011",
			"pbrMetallicRoughness":{
				"baseColorFactor":[
					0.8000000715255737,
					0.7814377546310425,
					0.006858477368950844,
					1
				],
				"metallicFactor":0,
				"roughnessFactor":0.5
			}
		},
		{
			"doubleSided":true,
			"name":"Material.012",
			"pbrMetallicRoughness":{
				"baseColorFactor":[
					0.9911020398139954,
					0.03433951362967491,
					0.15592649579048157,
					1
				],
				"metallicFactor":0,
				"roughnessFactor":0.5
			}
		}
	],
	"meshes":[
		{
			"name":"Cube",
			"primitives":[
				{
					"attributes":{
						"POSITION":0,
						"NORMAL":1,
						"TEXCOORD_0":2
					},
					"indices":3,
					"material":0
				},
				{
					"attributes":{
						"POSITION":4,
						"NORMAL":5,
						"TEXCOORD_0":6
					},
					"indices":7,
					"material":1
				},
				{
					"attributes":{
						"POSITION":8,
						"NORMAL":9,
						"TEXCOORD_0":10
					},
					"indices":11,
					"material":2
				},
				{
					"attributes":{
						"POSITION":12,
						"NORMAL":13,
						"TEXCOORD_0":14
					},
					"indices":15,
					"material":0
				},
				{
					"attributes":{
						"POSITION":16,
						"NORMAL":17,
						"TEXCOORD_0":18
					},
					"indices":19,
					"material":3
				},
				{
					"attributes":{
						"POSITION":20,
						"NORMAL":21,
						"TEXCOORD_0":22
					},
					"indices":23,
					"material":4
				}
			]
		},
		{
			"name":"Cube.001",
			"primitives":[
				{
					"attributes":{
						"POSITION":24,
						"NORMAL":25,
						"TEXCOORD_0":26
					},
					"indices":27,
					"material":0
				},
				{
					"attributes":{
						"POSITION":28,
						"NORMAL":29,
						"TEXCOORD_0":30
					},
					"indices":31,
					"material":1
				},
				{
					"attributes":{
						"POSITION":32,
						"NORMAL":33,
						"TEXCOORD_0":34
					},
					"indices":35,
					"material":2
				}
			]
		},
		{
			"name":"Plane",
			"primitives":[
				{
					"attributes":{
						"POSITION":36,
						"NORMAL":37,
						"TEXCOORD_0":38
					},
					"indices":39,
					"material":5
				}
			]
		},
		{
			"name":"Cylinder.001",
			"primitives":[
				{
					"attributes":{
						"POSITION":40,
						"NORMAL":41,
						"TEXCOORD_0":42
					},
					"indices":43,
					"material":6
				},
				{
					"attributes":{
						"POSITION":44,
						"NORMAL":45,
						"TEXCOORD_0":46
					},
					"indices":47,
					"material":7
				},
				{
					"attributes":{
						"POSITION":48,
						"NORMAL":49,
						"TEXCOORD_0":50
					},
					"indices":51,
					"material":8
				},
				{
					"attributes":{
						"POSITION":52,
						"NORMAL":53,
						"TEXCOORD_0":54
					},
					"indices":55,
					"material":9
				},
				{
					"attributes":{
						"POSITION":56,
						"NORMAL":57,
						"TEXCOORD_0":58
					},
					"indices":59,
					"material":10
				}
			]
		}
	],
	"accessors":[
		{
			"bufferView":0,
			"componentType":5126,
			"count":40,
			"max":[
				1.0387667417526245,
				3.3038766384124756,
				1.0775333642959595
			],
			"min":[
				-1.0387667417526245,
				3.096123218536377,
				-3.077533721923828
			],
			"type":"VEC3"
		},
		{
			"bufferView":1,
			"componentType":5126,
			"count":40,
			"type":"VEC3"
		},
		{
			"bufferView":2,
			"componentType":5126,
			"count":40,
			"type":"VEC2"
		},
		{
			"bufferView":3,
			"componentType":5123,
			"count":102,
			"type":"SCALAR"
		},
		{
			"bufferView":4,
			"componentType":5126,
			"count":317,
			"max":[
				1.0387667417526245,
				3.299999952316284,
				1.0775333642959595
			],
			"min":[
				-1.0387667417526245,
				-1,
				-3.077533721923828
			],
			"type":"VEC3"
		},
		{
			"bufferView":5,
			"componentType":5126,
			"count":317,
			"type":"VEC3"
		},
		{
			"bufferView":6,
			"componentType":5126,
			"count":317,
			"type":"VEC2"
		},
		{
			"bufferView":7,
			"componentType":5123,
			"count":870,
			"type":"SCALAR"
		},
		{
			"bufferView":8,
			"componentType":5126,
			"count":52,
			"max":[
				0.8058745861053467,
				1.585859775543213,
				0.8584241271018982
			],
			"min":[
				-0.9254114627838135,
				-0.9059259295463562,
				0.763323962688446
			],
			"type":"VEC3"
		},
		{
			"bufferView":9,
			"componentType":5126,
			"count":52,
			"type":"VEC3"
		},
		{
			"bufferView":10,
			"componentType":5126,
			"count":52,
			"type":"VEC2"
		},
		{
			"bufferView":11,
			"componentType":5123,
			"count":117,
			"type":"SCALAR"
		},
		{
			"bufferView":12,
			"componentType":5126,
			"count":109,
			"max":[
				0.8371769785881042,
				1.585859775543213,
				1
			],
			"min":[
				-0.9254114627838135,
				-0.9059259295463562,
				0.763323962688446
			],
			"type":"VEC3"
		},
		{
			"bufferView":13,
			"componentType":5126,
			"count":109,
			"type":"VEC3"
		},
		{
			"bufferView":14,
			"componentType":5126,
			"count":109,
			"type":"VEC2"
		},
		{
			"bufferView":15,
			"componentType":5123,
			"count":255,
			"type":"SCALAR"
		},
		{
			"bufferView":16,
			"componentType":5126,
			"count":146,
			"max":[
				1.0387667417526245,
				3.3038766384124756,
				1.0775333642959595
			],
			"min":[
				-1.0387667417526245,
				2.0558743476867676,
				-3.077533721923828
			],
			"type":"VEC3"
		},
		{
			"bufferView":17,
			"componentType":5126,
			"count":146,
			"type":"VEC3"
		},
		{
			"bufferView":18,
			"componentType":5126,
			"count":146,
			"type":"VEC2"
		},
		{
			"bufferView":19,
			"componentType":5123,
			"count":348,
			"type":"SCALAR"
		},
		{
			"bufferView":20,
			"componentType":5126,
			"count":52,
			"max":[
				1,
				-0.8684857487678528,
				1
			],
			"min":[
				-1,
				-1,
				-3
			],
			"type":"VEC3"
		},
		{
			"bufferView":21,
			"componentType":5126,
			"count":52,
			"type":"VEC3"
		},
		{
			"bufferView":22,
			"componentType":5126,
			"count":52,
			"type":"VEC2"
		},
		{
			"bufferView":23,
			"componentType":5123,
			"count":120,
			"type":"SCALAR"
		},
		{
			"bufferView":24,
			"componentType":5126,
			"count":405,
			"max":[
				1.0387667417526245,
				4.164031982421875,
				2.2574617862701416
			],
			"min":[
				-1.0387667417526245,
				1.054909348487854,
				-2.077533721923828
			],
			"type":"VEC3"
		},
		{
			"bufferView":25,
			"componentType":5126,
			"count":405,
			"type":"VEC3"
		},
		{
			"bufferView":26,
			"componentType":5126,
			"count":405,
			"type":"VEC2"
		},
		{
			"bufferView":27,
			"componentType":5123,
			"count":852,
			"type":"SCALAR"
		},
		{
			"bufferView":28,
			"componentType":5126,
			"count":326,
			"max":[
				1.0387667417526245,
				4.164031982421875,
				2.07753324508667
			],
			"min":[
				-1.0387667417526245,
				0.16015507280826569,
				-2.077533721923828
			],
			"type":"VEC3"
		},
		{
			"bufferView":29,
			"componentType":5126,
			"count":326,
			"type":"VEC3"
		},
		{
			"bufferView":30,
			"componentType":5126,
			"count":326,
			"type":"VEC2"
		},
		{
			"bufferView":31,
			"componentType":5123,
			"count":984,
			"type":"SCALAR"
		},
		{
			"bufferView":32,
			"componentType":5126,
			"count":94,
			"max":[
				0.8087916970252991,
				3.3937184810638428,
				1.9654210805892944
			],
			"min":[
				-0.8087916970252991,
				1.054909348487854,
				1.9374512434005737
			],
			"type":"VEC3"
		},
		{
			"bufferView":33,
			"componentType":5126,
			"count":94,
			"type":"VEC3"
		},
		{
			"bufferView":34,
			"componentType":5126,
			"count":94,
			"type":"VEC2"
		},
		{
			"bufferView":35,
			"componentType":5123,
			"count":240,
			"type":"SCALAR"
		},
		{
			"bufferView":36,
			"componentType":5126,
			"count":4,
			"max":[
				2.1726558208465576,
				0,
				0.9999998807907104
			],
			"min":[
				-2.1726558208465576,
				0,
				-1
			],
			"type":"VEC3"
		},
		{
			"bufferView":37,
			"componentType":5126,
			"count":4,
			"type":"VEC3"
		},
		{
			"bufferView":38,
			"componentType":5126,
			"count":4,
			"type":"VEC2"
		},
		{
			"bufferView":39,
			"componentType":5123,
			"count":6,
			"type":"SCALAR"
		},
		{
			"bufferView":40,
			"componentType":5126,
			"count":336,
			"max":[
				1.77473783493042,
				-3.814697265625e-06,
				1.77473783493042
			],
			"min":[
				-1.77473783493042,
				-2.97298264503479,
				-1.77473783493042
			],
			"type":"VEC3"
		},
		{
			"bufferView":41,
			"componentType":5126,
			"count":336,
			"type":"VEC3"
		},
		{
			"bufferView":42,
			"componentType":5126,
			"count":336,
			"type":"VEC2"
		},
		{
			"bufferView":43,
			"componentType":5123,
			"count":522,
			"type":"SCALAR"
		},
		{
			"bufferView":44,
			"componentType":5126,
			"count":32,
			"max":[
				1.5952070951461792,
				-2.5192339420318604,
				1.5952070951461792
			],
			"min":[
				-1.5952070951461792,
				-2.519235134124756,
				-1.5952070951461792
			],
			"type":"VEC3"
		},
		{
			"bufferView":45,
			"componentType":5126,
			"count":32,
			"type":"VEC3"
		},
		{
			"bufferView":46,
			"componentType":5126,
			"count":32,
			"type":"VEC2"
		},
		{
			"bufferView":47,
			"componentType":5123,
			"count":96,
			"type":"SCALAR"
		},
		{
			"bufferView":48,
			"componentType":5126,
			"count":384,
			"max":[
				0.9121817946434021,
				-1.548884391784668,
				0.2054547369480133
			],
			"min":[
				-0.5373436212539673,
				-4.903173923492432,
				-0.48975205421447754
			],
			"type":"VEC3"
		},
		{
			"bufferView":49,
			"componentType":5126,
			"count":384,
			"type":"VEC3"
		},
		{
			"bufferView":50,
			"componentType":5126,
			"count":384,
			"type":"VEC2"
		},
		{
			"bufferView":51,
			"componentType":5123,
			"count":576,
			"type":"SCALAR"
		},
		{
			"bufferView":52,
			"componentType":5126,
			"count":336,
			"max":[
				1.1162811517715454,
				-4.1789140701293945,
				0.10126127302646637
			],
			"min":[
				-0.6588032245635986,
				-5.081234931945801,
				-0.681082010269165
			],
			"type":"VEC3"
		},
		{
			"bufferView":53,
			"componentType":5126,
			"count":336,
			"type":"VEC3"
		},
		{
			"bufferView":54,
			"componentType":5126,
			"count":336,
			"type":"VEC2"
		},
		{
			"bufferView":55,
			"componentType":5123,
			"count":558,
			"type":"SCALAR"
		},
		{
			"bufferView":56,
			"componentType":5126,
			"count":1632,
			"max":[
				1.713781476020813,
				-3.5331525802612305,
				0.8078771233558655
			],
			"min":[
				-1.2946900129318237,
				-5.25399112701416,
				-1.2402584552764893
			],
			"type":"VEC3"
		},
		{
			"bufferView":57,
			"componentType":5126,
			"count":1632,
			"type":"VEC3"
		},
		{
			"bufferView":58,
			"componentType":5126,
			"count":1632,
			"type":"VEC2"
		},
		{
			"bufferView":59,
			"componentType":5123,
			"count":2448,
			"type":"SCALAR"
		}
	],
	"bufferViews":[
		{
			"buffer":0,
			"byteLength":480,
			"byteOffset":0,
			"target":34962
		},
		{
			"buffer":0,
			"byteLength":480,
			"byteOffset":480,
			"target":34962
		},
		{
			"buffer":0,
			"byteLength":320,
			"byteOffset":960,
			"target":34962
		},
		{
			"buffer":0,
			"byteLength":204,
			"byteOffset":1280,
			"target":34963
		},
		{
			"buffer":0,
			"byteLength":3804,
			"byteOffset":1484,
			"target":34962
		},
		{
			"buffer":0,
			"byteLength":3804,
			"byteOffset":5288,
			"target":34962
		},
		{
			"buffer":0,
			"byteLength":2536,
			"byteOffset":9092,
			"target":34962
		},
		{
			"buffer":0,
			"byteLength":1740,
			"byteOffset":11628,
			"target":34963
		},
		{
			"buffer":0,
			"byteLength":624,
			"byteOffset":13368,
			"target":34962
		},
		{
			"buffer":0,
			"byteLength":624,
			"byteOffset":13992,
			"target":34962
		},
		{
			"buffer":0,
			"byteLength":416,
			"byteOffset":14616,
			"target":34962
		},
		{
			"buffer":0,
			"byteLength":234,
			"byteOffset":15032,
			"target":34963
		},
		{
			"buffer":0,
			"byteLength":1308,
			"byteOffset":15268,
			"target":34962
		},
		{
			"buffer":0,
			"byteLength":1308,
			"byteOffset":16576,
			"target":34962
		},
		{
			"buffer":0,
			"byteLength":872,
			"byteOffset":17884,
			"target":34962
		},
		{
			"buffer":0,
			"byteLength":510,
			"byteOffset":18756,
			"target":34963
		},
		{
			"buffer":0,
			"byteLength":1752,
			"byteOffset":19268,
			"target":34962
		},
		{
			"buffer":0,
			"byteLength":1752,
			"byteOffset":21020,
			"target":34962
		},
		{
			"buffer":0,
			"byteLength":1168,
			"byteOffset":22772,
			"target":34962
		},
		{
			"buffer":0,
			"byteLength":696,
			"byteOffset":23940,
			"target":34963
		},
		{
			"buffer":0,
			"byteLength":624,
			"byteOffset":24636,
			"target":34962
		},
		{
			"buffer":0,
			"byteLength":624,
			"byteOffset":25260,
			"target":34962
		},
		{
			"buffer":0,
			"byteLength":416,
			"byteOffset":25884,
			"target":34962
		},
		{
			"buffer":0,
			"byteLength":240,
			"byteOffset":26300,
			"target":34963
		},
		{
			"buffer":0,
			"byteLength":4860,
			"byteOffset":26540,
			"target":34962
		},
		{
			"buffer":0,
			"byteLength":4860,
			"byteOffset":31400,
			"target":34962
		},
		{
			"buffer":0,
			"byteLength":3240,
			"byteOffset":36260,
			"target":34962
		},
		{
			"buffer":0,
			"byteLength":1704,
			"byteOffset":39500,
			"target":34963
		},
		{
			"buffer":0,
			"byteLength":3912,
			"byteOffset":41204,
			"target":34962
		},
		{
			"buffer":0,
			"byteLength":3912,
			"byteOffset":45116,
			"target":34962
		},
		{
			"buffer":0,
			"byteLength":2608,
			"byteOffset":49028,
			"target":34962
		},
		{
			"buffer":0,
			"byteLength":1968,
			"byteOffset":51636,
			"target":34963
		},
		{
			"buffer":0,
			"byteLength":1128,
			"byteOffset":53604,
			"target":34962
		},
		{
			"buffer":0,
			"byteLength":1128,
			"byteOffset":54732,
			"target":34962
		},
		{
			"buffer":0,
			"byteLength":752,
			"byteOffset":55860,
			"target":34962
		},
		{
			"buffer":0,
			"byteLength":480,
			"byteOffset":56612,
			"target":34963
		},
		{
			"buffer":0,
			"byteLength":48,
			"byteOffset":57092,
			"target":34962
		},
		{
			"buffer":0,
			"byteLength":48,
			"byteOffset":57140,
			"target":34962
		},
		{
			"buffer":0,
			"byteLength":32,
			"byteOffset":57188,
			"target":34962
		},
		{
			"buffer":0,
			"byteLength":12,
			"byteOffset":57220,
			"target":34963
		},
		{
			"buffer":0,
			"byteLength":4032,
			"byteOffset":57232,
			"target":34962
		},
		{
			"buffer":0,
			"byteLength":4032,
			"byteOffset":61264,
			"target":34962
		},
		{
			"buffer":0,
			"byteLength":2688,
			"byteOffset":65296,
			"target":34962
		},
		{
			"buffer":0,
			"byteLength":1044,
			"byteOffset":67984,
			"target":34963
		},
		{
			"buffer":0,
			"byteLength":384,
			"byteOffset":69028,
			"target":34962
		},
		{
			"buffer":0,
			"byteLength":384,
			"byteOffset":69412,
			"target":34962
		},
		{
			"buffer":0,
			"byteLength":256,
			"byteOffset":69796,
			"target":34962
		},
		{
			"buffer":0,
			"byteLength":192,
			"byteOffset":70052,
			"target":34963
		},
		{
			"buffer":0,
			"byteLength":4608,
			"byteOffset":70244,
			"target":34962
		},
		{
			"buffer":0,
			"byteLength":4608,
			"byteOffset":74852,
			"target":34962
		},
		{
			"buffer":0,
			"byteLength":3072,
			"byteOffset":79460,
			"target":34962
		},
		{
			"buffer":0,
			"byteLength":1152,
			"byteOffset":82532,
			"target":34963
		},
		{
			"buffer":0,
			"byteLength":4032,
			"byteOffset":83684,
			"target":34962
		},
		{
			"buffer":0,
			"byteLength":4032,
			"byteOffset":87716,
			"target":34962
		},
		{
			"buffer":0,
			"byteLength":2688,
			"byteOffset":91748,
			"target":34962
		},
		{
			"buffer":0,
			"byteLength":1116,
			"byteOffset":94436,
			"target":34963
		},
		{
			"buffer":0,
			"byteLength":19584,
			"byteOffset":95552,
			"target":34962
		},
		{
			"buffer":0,
			"byteLength":19584,
			"byteOffset":115136,
			"target":34962
		},
		{
			"buffer":0,
			"byteLength":13056,
			"byteOffset":134720,
			"target":34962
		},
		{
			"buffer":0,
			"byteLength":4896,
			"byteOffset":147776,
			"target":34963
		}
	],
	"buffers":[
		{
			"byteLength":152672,
			"uri":"buildingScene.bin"
		}
	]
}
